<svg class="cronitor-logo" width="124" height="24" viewBox="0 0 139 27" fill="none" xmlns="http://www.w3.org/2000/svg"><path d="M22.895 11.46h-6.733c-.057-.56-.169-1.063-.393-1.51a4.478 4.478 0 0 0-.842-1.174c-.337-.335-.786-.559-1.29-.782a5.31 5.31 0 0 0-1.684-.28c-1.123 0-2.077.28-2.806.783-.786.559-1.347 1.286-1.74 2.292-.392 1.006-.617 2.236-.617 3.633 0 1.51.225 2.74.617 3.746.393 1.006 1.01 1.733 1.74 2.236.786.503 1.683.782 2.75.782.617 0 1.178-.055 1.627-.223a4.697 4.697 0 0 0 1.29-.671c.393-.28.674-.67.899-1.062.224-.392.392-.895.449-1.398l6.733.056c-.056 1.006-.392 2.068-.897 3.13-.506 1.063-1.235 2.069-2.133 2.963-.898.895-2.076 1.621-3.423 2.18-1.347.56-2.918.839-4.714.839-2.244 0-4.265-.503-6.004-1.453-1.796-.95-3.199-2.348-4.209-4.249C.505 19.453 0 17.162 0 14.478c0-2.683.505-4.975 1.571-6.875C2.637 5.758 4.041 4.36 5.836 3.41c1.796-.95 3.76-1.453 5.948-1.453 1.572 0 2.975.223 4.265.614a9.665 9.665 0 0 1 3.423 1.845c.954.783 1.74 1.789 2.357 2.963.617 1.23.954 2.571 1.066 4.08ZM26.04 26.665V8.384h6.397v3.466h.168c.337-1.286.842-2.236 1.571-2.795.73-.615 1.572-.895 2.582-.895.28 0 .56 0 .841.056l.842.168v5.59c-.337-.112-.73-.168-1.178-.224-.505-.056-.898-.056-1.235-.056-.617 0-1.234.168-1.74.448-.504.28-.897.67-1.234 1.23-.28.503-.449 1.118-.449 1.844v9.503H26.04v-.055ZM48.37 27c-1.964 0-3.703-.391-5.106-1.174-1.403-.782-2.525-1.9-3.255-3.298-.73-1.397-1.122-3.074-1.122-4.92 0-1.844.392-3.52 1.122-4.918.73-1.398 1.852-2.516 3.255-3.299 1.403-.782 3.142-1.173 5.106-1.173s3.704.39 5.107 1.173 2.525 1.901 3.255 3.299c.73 1.397 1.122 3.074 1.122 4.919 0 1.845-.393 3.522-1.122 4.92-.73 1.397-1.852 2.515-3.255 3.297C52.017 26.61 50.334 27 48.37 27Zm0-4.863c.562 0 1.067-.168 1.46-.56.392-.39.729-.894.953-1.564.225-.671.337-1.51.337-2.46s-.112-1.789-.337-2.46c-.224-.67-.56-1.23-.954-1.565-.392-.391-.898-.559-1.459-.559-.56 0-1.066.168-1.515.56-.449.39-.73.893-.954 1.564-.224.671-.337 1.51-.337 2.46s.113 1.789.337 2.46c.225.67.561 1.23.954 1.565.45.391.954.559 1.515.559ZM67.115 16.379v10.286H60.55V8.385h6.228v3.466h.169c.393-1.174 1.122-2.068 2.132-2.74 1.01-.67 2.189-1.005 3.536-1.005 1.29 0 2.413.28 3.367.894a6.61 6.61 0 0 1 2.244 2.404c.505 1.006.786 2.18.786 3.522v11.627H72.39V16.379c0-.894-.224-1.621-.673-2.124-.45-.503-1.123-.783-1.964-.783-.561 0-1.01.112-1.403.336-.393.223-.73.559-.898 1.006-.168.447-.337 1.006-.337 1.565ZM82.21 26.665V8.384h6.566v18.28H82.21ZM103.086 8.385v4.752H91.021V8.385h12.065Zm-9.708-4.36h6.565v16.77c0 .28.056.447.112.615.113.168.225.28.393.391.169.056.393.112.73.112.224 0 .449 0 .673-.056.281-.056.449-.112.617-.112l.954 4.64c-.28.112-.729.168-1.234.336-.505.167-1.179.223-1.964.223-1.515.056-2.806-.056-3.816-.447-1.01-.391-1.796-1.006-2.3-1.845-.506-.838-.787-1.9-.73-3.186V4.025ZM114.419 27c-1.964 0-3.703-.391-5.106-1.174-1.403-.782-2.526-1.9-3.255-3.298-.73-1.397-1.122-3.074-1.122-4.92 0-1.844.392-3.52 1.122-4.918.729-1.398 1.852-2.516 3.255-3.299 1.403-.782 3.142-1.173 5.106-1.173s3.704.39 5.107 1.173 2.525 1.901 3.255 3.299c.729 1.397 1.122 3.074 1.122 4.919 0 1.845-.393 3.522-1.122 4.92-.73 1.397-1.852 2.515-3.255 3.297-1.403.783-3.143 1.174-5.107 1.174Zm.056-4.863c.561 0 1.067-.168 1.459-.56.393-.39.73-.894.954-1.564.225-.671.337-1.51.337-2.46s-.112-1.789-.337-2.46c-.224-.67-.561-1.23-.954-1.565-.392-.391-.898-.559-1.459-.559s-1.066.168-1.515.56c-.449.39-.729.893-.954 1.564-.224.671-.337 1.51-.337 2.46s.113 1.789.337 2.46c.225.67.561 1.23.954 1.565.393.391.898.559 1.515.559ZM126.599 26.665V8.384h6.397v3.466h.168c.337-1.286.842-2.236 1.571-2.795.73-.615 1.572-.895 2.582-.895.28 0 .561 0 .842.056l.841.168v5.59c-.336-.112-.729-.168-1.178-.224-.505-.056-.898-.056-1.235-.056-.617 0-1.234.168-1.739.448-.505.28-.898.67-1.235 1.23-.28.503-.449 1.118-.449 1.844v9.503h-6.565v-.055Z" fill="#000"/><path d="M85.355 7.267a3.64 3.64 0 0 0 3.648-3.633A3.64 3.64 0 0 0 85.355 0a3.64 3.64 0 0 0-3.648 3.634 3.64 3.64 0 0 0 3.648 3.633Z" fill="#00F159"/></svg>
